<?xml version="1.0" encoding="UTF-8"?>
<svg width="838px" height="238px" viewBox="0 0 838 238" version="1.1" xmlns="http://www.w3.org/2000/svg" xmlns:xlink="http://www.w3.org/1999/xlink">
    <title>logo-full</title>
    <g id="Page-1" stroke="none" stroke-width="1" fill="none" fill-rule="evenodd">
        <g id="Light-theme" transform="translate(-42, -271)" fill="#2B222D" fill-rule="nonzero">
            <g id="logo-full" transform="translate(42, 271)">
                <path d="M425,0 L408.406227,45.9383984 L258.574218,45.9383984 L250.765384,67.1156742 C244.58339,83.9488935 241.871989,100.049053 242.631181,115.416153 C243.390374,130.783253 247.511703,144.33128 254.995169,156.060233 C262.370179,167.680584 272.483704,176.61305 285.335744,182.857632 C298.187784,189.102213 312.964918,192.224504 329.667147,192.224504 L355.045859,192.224504 L338.289402,238 L317.465844,238 C294.039341,238 273.270011,233.574492 255.157853,224.723477 C237.045696,215.872462 222.729499,203.084645 212.209264,186.360027 C201.689029,169.744011 195.859517,150.820214 194.720729,129.588638 C193.581941,108.357061 197.242332,86.1209217 205.701902,62.880219 L211.882,45.938 L64.0561548,45.9383984 L56.2473205,67.1156742 C50.0653266,83.9488935 47.3539258,100.049053 48.1131181,115.416153 C48.8723103,130.783253 52.9936395,144.33128 60.4771058,156.060233 C67.852116,167.680584 77.965641,176.61305 90.8176808,182.857632 C103.669721,189.102213 118.446855,192.224504 135.149084,192.224504 L160.527796,192.224504 L143.771339,238 L122.94778,238 C99.5212775,238 78.7519472,233.574492 60.6397898,224.723477 C42.5276324,215.872462 28.2114361,203.084645 17.691201,186.360027 C7.17096581,169.744011 1.34145406,150.820214 0.202665722,129.588638 C-0.936122619,108.357061 2.72426848,86.1209217 11.183839,62.880219 L34.1222899,0 L425,0 Z" id="Combined-Shape"></path>
                <path d="M685.44023,67.9301848 C674.597318,75.8580881 665.272414,85.2521104 657.465517,96.1122519 L803.194253,96.1122519 L794.086207,121.199179 C786.387739,142.376454 774.053927,161.924709 757.08477,179.843943 C740.115613,197.763176 720.733908,211.935661 698.939655,222.361396 C677.145402,232.787132 655.676437,238 634.532759,238 L555,238 L571.752299,192.224504 L646.568391,192.224504 C662.399042,192.224504 678.500766,187.554643 694.873563,178.214921 C711.24636,168.8752 724.8,156.766142 735.534483,141.887748 L589.968391,141.887748 L599.076437,116.800821 C604.714751,101.162218 613.063793,86.2295232 624.123563,72.0027379 C635.183333,57.7759525 648.194828,45.1781885 663.158046,34.2094456 C678.229693,23.1321013 693.951916,14.661191 710.324713,8.79671458 C726.69751,2.93223819 742.690805,0 758.304598,0 L838,0 L821.247701,45.9383984 L746.268966,45.9383984 C725.775862,45.9383984 705.499617,53.2689938 685.44023,67.9301848 Z" id="Path"></path>
                <g id="N" transform="translate(337, 0)">
                    <path d="M236.457159,0.163013699 L283,0 L196.586544,238 L149.880966,238 L173.640598,172.631507 C177.763274,153.39589 178.76682,135.328539 176.651236,118.429452 C174.535653,101.530365 169.517922,87.4296804 161.598045,76.1273973 C151.074372,61.0214612 135.777075,51.5666667 115.706153,47.7630137 L46.5428407,238 L0,238 L86.413456,0 L107.406555,0 C127.260495,0 145.080219,3.36894977 160.865727,10.1068493 C176.651236,16.8447489 189.751581,26.7342466 200.166763,39.7753425 C205.374353,46.1872146 209.930995,53.6858447 213.836688,62.2712329 L236.457159,0.163013699 Z" id="Path"></path>
                </g>
            </g>
        </g>
    </g>
</svg>