<?xml version="1.0" encoding="UTF-8"?>
<svg width="504px" height="143px" viewBox="0 0 504 143" version="1.1" xmlns="http://www.w3.org/2000/svg" xmlns:xlink="http://www.w3.org/1999/xlink">
    <title>logo-full</title>
    <g id="Page-1" stroke="none" stroke-width="1" fill="none" fill-rule="evenodd">
        <g id="Dark-theme" transform="translate(-701, -740)" fill="#FFFFFF" fill-rule="nonzero">
            <g id="logo-full" transform="translate(701, 740)">
                <path d="M256,0 L246.004692,27.6016427 L155.752941,27.6016427 L151.049267,40.3258042 C147.325524,50.4398814 145.692304,60.1135067 146.149606,69.3466804 C146.606907,78.579854 149.089402,86.7200548 153.59709,93.7672827 C158.039449,100.749258 164.131361,106.116245 171.872825,109.868241 C179.614289,113.620237 188.515339,115.496235 198.575976,115.496235 L213.862917,115.496235 L203.769616,143 L191.226485,143 C177.115462,143 164.604995,140.340977 153.695083,135.02293 C142.785172,129.704883 134.161769,122.021446 127.824874,111.972621 C121.48798,101.989049 117.976556,90.6188684 117.290604,77.8620808 C116.604651,65.1052932 118.809499,51.7449236 123.905146,37.7809719 L127.628,27.601 L38.5844133,27.6016427 L33.8807389,40.3258042 C30.1569968,50.4398814 28.5237765,60.1135067 28.9810782,69.3466804 C29.4383798,78.579854 31.9208746,86.7200548 36.4285625,93.7672827 C40.8709216,100.749258 46.9628332,106.116245 54.7042972,109.868241 C62.4457612,113.620237 71.3468116,115.496235 81.4074483,115.496235 L96.6943899,115.496235 L86.6010887,143 L74.0579572,143 C59.9469342,143 47.436467,140.340977 36.5265557,135.02293 C25.6166445,129.704883 16.9932415,122.021446 10.6563469,111.972621 C4.31945235,101.989049 0.8080288,90.6188684 0.122076294,77.8620808 C-0.563876213,65.1052932 1.64097113,51.7449236 6.73661832,37.7809719 L20.5536617,0 L256,0 Z" id="Combined-Shape"></path>
                <path d="M412.356322,40.8151951 C405.842912,45.5785991 400.241379,51.2229067 395.551724,57.7481177 L483.091954,57.7481177 L477.62069,72.8213552 C472.996169,85.5455168 465.587165,97.2908966 455.393678,108.057495 C445.200192,118.824093 433.557471,127.339493 420.465517,133.603696 C407.373563,139.867899 394.477011,143 381.775862,143 L334,143 L344.063218,115.496235 L389.005747,115.496235 C398.515326,115.496235 408.187739,112.690395 418.022989,107.078713 C427.858238,101.467032 436,94.1914214 442.448276,85.2518823 L355.005747,85.2518823 L360.477011,70.1786448 C363.863985,60.7823409 368.87931,51.8101757 375.522989,43.2621492 C382.166667,34.7141227 389.982759,27.1448779 398.971264,20.5544148 C408.024904,13.8986995 417.469349,8.80903491 427.304598,5.28542094 C437.139847,1.76180698 446.747126,0 456.126437,0 L504,0 L493.936782,27.6016427 L448.896552,27.6016427 C436.586207,27.6016427 424.40613,32.0061602 412.356322,40.8151951 Z" id="Path"></path>
                <g id="N" transform="translate(203, 0)">
                    <path d="M142.041403,0.0979452055 L170,0 L118.090857,143 L90.0345026,143 L104.307073,103.723973 C106.783592,92.1664384 107.386429,81.3108447 106.115584,71.1571918 C104.844738,61.0035388 101.830554,52.5312785 97.0730305,45.740411 C90.7513897,36.6641553 81.5622005,30.9833333 69.5054629,28.6979452 L27.9585969,143 L0,143 L51.9091432,0 L64.519839,0 C76.4462335,0 87.1506613,2.02420091 96.6331225,6.07260274 C106.115584,10.1210046 113.985049,16.0630137 120.241518,23.8986301 C123.369753,27.7511416 126.106958,32.256621 128.453134,37.4150685 L142.041403,0.0979452055 Z" id="Path"></path>
                </g>
            </g>
        </g>
    </g>
</svg>