<?xml version="1.0" encoding="UTF-8"?>
<svg width="503px" height="144px" viewBox="0 0 503 144" version="1.1" xmlns="http://www.w3.org/2000/svg" xmlns:xlink="http://www.w3.org/1999/xlink">
    <title>Group 2</title>
    <g id="Page-1" stroke="none" stroke-width="1" fill="none" fill-rule="evenodd">
        <g id="Light-theme" transform="translate(-221.000000, -371.000000)">
            <g id="Group-2" transform="translate(221.581468, 371.000000)">
                <path d="M255.119703,1.1328125 L245.158766,28.671875 L155.21736,28.671875 L150.52986,41.3671875 C146.818922,51.4583333 145.191318,61.110026 145.647047,70.3222656 C146.102776,79.5345052 148.576735,87.65625 153.068922,94.6875 C157.496005,101.653646 163.566969,107.008464 171.281813,110.751953 C178.996657,114.495443 187.867099,116.367188 197.893141,116.367188 L213.127516,116.367188 L203.068922,143.808594 L190.568922,143.808594 C176.506422,143.808594 164.038974,141.155599 153.166578,135.849609 C142.294183,130.54362 133.700433,122.877604 127.385328,112.851562 C121.070224,102.890625 117.570875,91.546224 116.887282,78.8183594 C116.203688,66.0904948 118.400953,52.7604167 123.479078,38.828125 L127.189,28.6718125 L38.4517346,28.671875 L33.7642346,41.3671875 C30.0532971,51.4583333 28.425693,61.110026 28.8814221,70.3222656 C29.3371513,79.5345052 31.8111096,87.65625 36.3032971,94.6875 C40.7303805,101.653646 46.801344,107.008464 54.5161878,110.751953 C62.2310315,114.495443 71.1014742,116.367188 81.1275159,116.367188 L96.3618909,116.367188 L86.3032971,143.808594 L73.8032971,143.808594 C59.7407971,143.808594 47.2733492,141.155599 36.4009534,135.849609 C25.5285576,130.54362 16.9348076,122.877604 10.6197034,112.851562 C4.30459922,102.890625 0.805250265,91.546224 0.121656515,78.8183594 C-0.561937235,66.0904948 1.63532839,52.7604167 6.71345339,38.828125 L20.4829846,1.1328125 L255.119703,1.1328125 Z" id="Combined-Shape" fill="#000000" fill-rule="nonzero"></path>
                <path d="M410.389235,41.8554688 C403.878818,46.6080729 398.27986,52.2395833 393.59236,58.75 L481.09236,58.75 L475.62361,73.7890625 C471.001214,86.484375 463.595615,98.203125 453.406813,108.945312 C443.218011,119.6875 431.580641,128.183594 418.494703,134.433594 C405.408766,140.683594 392.518141,143.808594 379.822828,143.808594 L332.068922,143.808594 L342.127516,116.367188 L387.049391,116.367188 C396.554599,116.367188 406.222568,113.567708 416.053297,107.96875 C425.884026,102.369792 434.022047,95.1106771 440.46736,86.1914062 L353.065016,86.1914062 L358.533766,71.1523438 C361.919183,61.7773438 366.932203,52.8255208 373.572828,44.296875 C380.213453,35.7682292 388.025953,28.2161458 397.010328,21.640625 C406.059808,15 415.499912,9.921875 425.330641,6.40625 C435.16137,2.890625 444.764235,1.1328125 454.139235,1.1328125 L501.990797,1.1328125 L491.932203,28.671875 L446.912672,28.671875 C434.607985,28.671875 422.433505,33.0664062 410.389235,41.8554688 Z" id="Path" fill="#000000" fill-rule="nonzero"></path>
                <path d="M367.918532,0 L315.418532,143 L287.418532,143 L302.505211,101.514649 C299.482381,102.479324 296.261261,103 292.918532,103 C282.564875,103 273.377909,98.0048015 267.636138,90.2929078 L247.918532,144 L219.918532,144 L271.918532,1 L300.418532,1 L285.805037,40.8065328 C288.091034,40.2788623 290.472217,40 292.918532,40 C304.121587,40 313.958673,45.8484157 319.543245,54.6587051 L339.418532,0 L367.918532,0 Z M292.414769,44.9995175 L291.973495,45.0038838 C277.23844,45.2610851 265.454714,56.6155298 265.41392,70.4704536 L319.405662,69.5280243 C318.881363,55.6829641 306.70855,44.7466824 291.973495,45.0038838 Z" id="Combined-Shape" fill="#000000"></path>
                <g id="Group" transform="translate(292.666819, 84.724341) rotate(-1.000000) translate(-292.666819, -84.724341) translate(262.666819, 73.950848)" stroke="#FFFFFF" stroke-width="2">
                    <line x1="0.00456914531" y1="1.57055709" x2="59.9954309" y2="0.523412708" id="Line" transform="translate(30.000000, 1.046985) rotate(1.000000) translate(-30.000000, -1.046985) "></line>
                    <line x1="6.00365532" y1="6.46584266" x2="53.9963447" y2="5.62812715" id="Line" transform="translate(30.000000, 6.046985) rotate(1.000000) translate(-30.000000, -6.046985) "></line>
                    <line x1="12" y1="11.0469849" x2="48" y2="11.0469849" id="Line"></line>
                    <line x1="17" y1="16.0469849" x2="43" y2="16.0469849" id="Line"></line>
                    <line x1="24" y1="21.0469849" x2="36" y2="21.0469849" id="Line"></line>
                </g>
            </g>
        </g>
    </g>
</svg>